# xmcd CD database file
#
# Track frame offsets:
#	150
#	15883
#	40892
#	65708
#	92277
#	103178
#	117083
#	126597
#	138168
#
# Disc length: 2063 seconds
#
# Revision: 7
# Processed by: cddbd v1.5.1PL0 Copyright (c) Steve Scherf et al.
# Submitted via: CDex 1.51
#
DISCID=71080d09
DTITLE=椎名林檎 - 絶頂集 １・２・３
DYEAR=2000
DGENRE=J-pop
TTITLE0=やっつけ仕事
TTITLE1=ギャンブル
TTITLE2=同じ夜
TTITLE3=メロウ
TTITLE4=不幸自慢
TTITLE5=喪＠CINコ瑠ヲュWァ
TTITLE6=膨らんできちゃった
TTITLE7=はいはい
TTITLE8=光合成
EXTD=YEAR: 2000
EXTT0=
EXTT1=
EXTT2=
EXTT3=
EXTT4=
EXTT5=
EXTT6=
EXTT7=
EXTT8=
PLAYORDER=
